<svg xmlns="http://www.w3.org/2000/svg" width="18" height="18" viewBox="0 0 18 18" fill="none">
  <path fill-rule="evenodd" clip-rule="evenodd" d="M16.3125 1.6875C16.4617 1.6875 16.6048 1.74676 16.7103 1.85225C16.8158 1.95774 16.875 2.10082 16.875 2.25V7.65C16.875 8.01934 16.8023 8.38507 16.6609 8.7263C16.5196 9.06753 16.3124 9.37757 16.0513 9.63874C15.7901 9.8999 15.4801 10.1071 15.1388 10.2484C14.7976 10.3898 14.4319 10.4625 14.0625 10.4625H3.0454L6.81078 14.2267C6.9164 14.3324 6.97574 14.4756 6.97574 14.625C6.97574 14.7744 6.9164 14.9176 6.81078 15.0233C6.70516 15.1289 6.5619 15.1882 6.41253 15.1882C6.26316 15.1882 6.1199 15.1289 6.01428 15.0233L1.28928 10.2983C1.2369 10.246 1.19533 10.1839 1.16698 10.1156C1.13862 10.0472 1.12402 9.97399 1.12402 9.9C1.12402 9.82601 1.13862 9.75275 1.16698 9.68441C1.19533 9.61607 1.2369 9.554 1.28928 9.50175L5.78928 5.00175C5.8949 4.89613 6.03816 4.83679 6.18753 4.83679C6.3369 4.83679 6.48016 4.89613 6.58578 5.00175C6.6914 5.10737 6.75074 5.25063 6.75074 5.4C6.75074 5.54937 6.6914 5.69263 6.58578 5.79825L3.0454 9.3375H14.0625C14.5101 9.3375 14.9393 9.15971 15.2558 8.84324C15.5722 8.52677 15.75 8.09755 15.75 7.65V2.25C15.75 2.10082 15.8093 1.95774 15.9148 1.85225C16.0203 1.74676 16.1633 1.6875 16.3125 1.6875Z" fill="#8C8B94"/>
</svg>