<svg xmlns="http://www.w3.org/2000/svg" width="24" height="24" viewBox="0 0 24 24" fill="none">
  <path fill-rule="evenodd" clip-rule="evenodd" d="M2.26946 9.67239C1.87893 10.0629 1.87893 10.6961 2.26946 11.0866L7.21634 16.0335C7.60686 16.424 8.24003 16.424 8.63055 16.0335C9.02108 15.643 9.02108 15.0098 8.63055 14.6193L5.39078 11.3795H14.2785C16.4342 11.3795 18.1818 13.1271 18.1818 15.2828V18.7531C18.1818 19.3054 18.6295 19.7531 19.1818 19.7531C19.7341 19.7531 20.1818 19.3054 20.1818 18.7531V15.2828C20.1818 12.0225 17.5388 9.3795 14.2785 9.3795H5.39078L8.63055 6.13972C9.02108 5.7492 9.02108 5.11603 8.63055 4.72551C8.24003 4.33499 7.60686 4.33499 7.21634 4.72551L2.26946 9.67239Z" fill="#8C8B94"/>
</svg>