<svg xmlns="http://www.w3.org/2000/svg" width="14" height="15" viewBox="0 0 14 15" fill="none">
  <path d="M11.1321 9.37104C10.4512 9.37104 9.79243 9.26032 9.17796 9.06104C9.08168 9.0286 8.97822 9.02386 8.87937 9.04735C8.78053 9.07084 8.69026 9.12162 8.61886 9.19389L7.74975 10.2844C6.18314 9.53711 4.71618 8.1255 3.93564 6.50354L5.01511 5.58461C5.16457 5.42961 5.20886 5.21372 5.14796 5.01997C4.94314 4.4055 4.83796 3.74675 4.83796 3.06586C4.83796 2.76693 4.58886 2.51782 4.28993 2.51782H2.37457C2.07564 2.51782 1.71582 2.65068 1.71582 3.06586C1.71582 8.20854 5.99493 12.4821 11.1321 12.4821C11.5251 12.4821 11.6801 12.1334 11.6801 11.8289V9.91907C11.6801 9.62014 11.431 9.37104 11.1321 9.37104Z" fill="#474747"/>
</svg>