<svg xmlns="http://www.w3.org/2000/svg" width="18" height="18" viewBox="0 0 18 18" fill="none">
  <path fill-rule="evenodd" clip-rule="evenodd" d="M0.968674 0.966721C1.3592 0.576197 1.99236 0.576197 2.38289 0.966721L17.0643 15.6481C17.4548 16.0387 17.4548 16.6718 17.0643 17.0623C16.6738 17.4529 16.0406 17.4529 15.6501 17.0623L0.968674 2.38093C0.57815 1.99041 0.57815 1.35725 0.968674 0.966721Z" fill="#B8B8BE"/>
  <path fill-rule="evenodd" clip-rule="evenodd" d="M17.0626 0.966721C16.6721 0.576197 16.0389 0.576197 15.6484 0.966721L0.966953 15.6481C0.576429 16.0387 0.576429 16.6718 0.966953 17.0623C1.35748 17.4529 1.99064 17.4529 2.38117 17.0623L17.0626 2.38093C17.4531 1.99041 17.4531 1.35725 17.0626 0.966721Z" fill="#B8B8BE"/>
</svg>