<svg width="24" height="24" viewBox="0 0 24 24" fill="none" xmlns="http://www.w3.org/2000/svg">
<path fill-rule="evenodd" clip-rule="evenodd" d="M7.78125 9.02891C7.78125 7.32427 9.16313 5.94238 10.8678 5.94238H16.9424C18.6471 5.94238 20.0289 7.32427 20.0289 9.02891V17.3221C20.0289 19.0268 18.6471 20.4086 16.9424 20.4086H10.8678C9.16314 20.4086 7.78125 19.0268 7.78125 17.3221V9.02891ZM10.8678 7.94238C10.2677 7.94238 9.78125 8.42884 9.78125 9.02891V17.3221C9.78125 17.9222 10.2677 18.4086 10.8678 18.4086H16.9424C17.5425 18.4086 18.0289 17.9222 18.0289 17.3221V9.02891C18.0289 8.42884 17.5425 7.94238 16.9424 7.94238H10.8678Z" fill="#8C8B94"/>
<path fill-rule="evenodd" clip-rule="evenodd" d="M3.96875 8.22281C3.96875 4.8594 6.69534 2.13281 10.0588 2.13281H16.3142C16.8665 2.13281 17.3142 2.58053 17.3142 3.13281C17.3142 3.6851 16.8665 4.13281 16.3142 4.13281H10.0588C7.79991 4.13281 5.96875 5.96397 5.96875 8.22281V16.9561C5.96875 17.5083 5.52103 17.9561 4.96875 17.9561C4.41647 17.9561 3.96875 17.5083 3.96875 16.9561V8.22281Z" fill="#8C8B94"/>
</svg>
