<svg width="184" height="22" viewBox="0 0 184 22" fill="none" xmlns="http://www.w3.org/2000/svg">
<rect width="22" height="22" rx="3.25926" fill="#292933"/>
<path fill-rule="evenodd" clip-rule="evenodd" d="M8.64137 4.23047H5.52734V17.7689H8.64137V4.23047ZM14.9883 4.23047H11.8743L9.0263 10.1586C8.84929 10.5284 9.11763 10.9557 9.52802 10.9557H11.7581L14.9883 4.23047ZM13.9802 10.9558H11.7557V10.9569L14.96 17.6246C14.9769 17.6596 15.013 17.6821 15.0524 17.6821H18.1022L15.2565 11.7585C15.0209 11.2681 14.5248 10.9558 13.9802 10.9558Z" fill="white"/>
<path d="M37.7551 5.24447H35.6562L36.758 2.30469H39.2482L38.2562 4.86863C38.191 5.09173 37.9868 5.24447 37.7551 5.24447Z" fill="#292933"/>
<path d="M33.4391 5.24371H35.6598L35.1347 3.76953H32.6445L33.1868 5.02404C33.2521 5.16134 33.2692 5.24371 33.4374 5.24371H33.4391Z" fill="#292933"/>
<path d="M36.7937 13.4031C35.9579 13.4031 35.2303 13.2658 34.6124 12.9912C33.9946 12.7166 33.5261 12.3494 33.2086 11.8877C32.8894 11.4261 32.7315 10.9267 32.7315 10.3895C32.7315 9.32893 33.2 8.57382 34.1353 8.12418V7.97488H31.7773V5.91549H41.81V7.97488H39.452V8.12418C40.401 8.57382 40.8747 9.32893 40.8747 10.3895C40.8747 10.9267 40.7117 11.4261 40.389 11.8877C40.0647 12.3494 39.5927 12.7183 38.9749 12.9912C38.3571 13.2641 37.6294 13.4031 36.7937 13.4031ZM37.13 17.3897H45.74V19.4491H36.1947C35.1342 19.4491 34.6039 18.9188 34.6039 17.8582V14.4894H37.13V17.3914V17.3897ZM36.6615 11.3059H36.9241C37.4115 11.3059 37.8045 11.1652 38.1031 10.8855C38.4017 10.604 38.5527 10.2402 38.5527 9.79057C38.5527 9.34094 38.4034 8.97711 38.1031 8.69566C37.8028 8.41421 37.4098 8.2752 36.9241 8.2752H36.6615C36.1879 8.2752 35.8 8.4125 35.5014 8.68708C35.2011 8.96167 35.0518 9.33064 35.0518 9.79057C35.0518 10.2505 35.2011 10.6212 35.5014 10.8941C35.8 11.1686 36.1879 11.3059 36.6615 11.3059ZM47.8183 7.58188V9.67902H45.347V15.1072H42.8397V2.30469H45.347V7.58359H47.8183V7.58188Z" fill="#292933"/>
<path d="M58.3591 10.8574V13.2343H62.5894V19.6544H60.0632V15.2937H51.2851V13.2343H55.8518V10.8574H49.375V8.79799H59.7629C60.0632 7.5246 60.2366 6.21517 60.2863 4.86798H51.4704V2.80859H62.7576V3.98759C62.7576 5.5596 62.5826 7.16421 62.2342 8.79799H64.8359V10.8574H58.3591Z" fill="#292933"/>
<path d="M80.5465 2.30469V19.6585H78.0391V9.84721H75.513C75.4014 11.469 74.9363 12.6995 74.1194 13.5352C73.3025 14.371 72.2505 14.7897 70.9651 14.7897C69.5802 14.7897 68.4733 14.3058 67.6427 13.3396C66.812 12.3734 66.3984 10.9473 66.3984 9.06292C66.3984 7.17858 66.8137 5.75245 67.6427 4.78625C68.4716 3.82006 69.5802 3.3361 70.9651 3.3361C72.175 3.3361 73.1807 3.70679 73.9787 4.44989C74.7767 5.19298 75.271 6.29304 75.458 7.75349H78.0409V2.3064H80.5482L80.5465 2.30469ZM72.8907 7.8822C72.8907 7.0962 72.7191 6.49383 72.3758 6.07509C72.0326 5.65806 71.5624 5.44869 70.9617 5.44869C70.361 5.44869 69.9097 5.65806 69.5682 6.07509C69.225 6.49383 69.0533 7.09449 69.0533 7.8822V10.2402C69.0533 11.0262 69.225 11.6286 69.5682 12.0456C69.9114 12.4643 70.3765 12.672 70.9617 12.672C71.5469 12.672 72.0309 12.4626 72.3758 12.0456C72.7191 11.6286 72.8907 11.0262 72.8907 10.2402V7.8822Z" fill="#292933"/>
<path d="M93.8498 10.8409H85.7461V2.96026H93.8498V10.8409ZM95.348 15.8194C95.511 15.8194 95.7101 15.8692 95.9469 15.9687L99.9147 17.7656L98.6602 19.6568L94.1501 17.3726C93.9751 17.285 93.7949 17.2421 93.6078 17.2421C93.4328 17.2421 93.2457 17.2919 93.0466 17.3914L92.8596 17.503C91.8745 18.2135 90.3454 18.9446 88.274 19.6928L87.0572 17.7844C88.7665 17.2833 90.0296 16.7547 90.8482 16.2039C91.6651 15.6513 92.1422 15.0437 92.2795 14.3779H87.9188V12.3185H99.036V14.3779H94.7868C94.737 15.1742 94.4436 15.8915 93.9064 16.5299L94.0369 16.5677L94.5792 16.1558C94.8537 15.931 95.1095 15.8194 95.3463 15.8194H95.348ZM91.3785 4.96302H88.2156V8.8381H91.3785V4.96302ZM101.319 5.73014V7.82729H98.8473V11.4209H96.3399V2.30469H98.8473V5.73014H101.319Z" fill="#292933"/>
<path d="M110.893 13.182V14.1739H115.216V19.6587H105.67C104.61 19.6587 104.08 19.1285 104.08 18.0679V14.1739H108.421V13.182H101.926V11.2358H117.387V13.182H110.893ZM108.234 6.98663H103.611V5.07826H115.701V6.98663H110.815C110.678 7.46029 110.404 7.89791 109.992 8.29606L110.16 8.33381L110.853 7.88418C111.154 7.69712 111.464 7.60273 111.789 7.60273C111.964 7.60273 112.163 7.63362 112.387 7.69712L116.412 9.10094L115.157 10.8411L110.366 8.96879C110.191 8.89328 109.985 8.85724 109.748 8.85724C109.499 8.85724 109.28 8.90014 109.092 8.98767L108.905 9.08034C107.833 9.67928 106.223 10.2731 104.076 10.8583L102.878 9.17301C104.363 8.8109 105.538 8.45223 106.407 8.09698C107.273 7.74174 107.883 7.36933 108.231 6.9832L108.234 6.98663ZM112.763 16.0085H106.53V17.8242H112.763V16.0085ZM112.465 4.40381H106.849V2.47656H112.465V4.40381Z" fill="#292933"/>
<path d="M132.632 2.3064V11.6269H130.123V8.03323H127.11V11.0846H118.949V2.99802H121.364V5.20671H124.695V2.99802H127.11V5.97384H130.123V2.30469H132.632V2.3064ZM124.697 7.22835H121.366V9.06292H124.697V7.22835ZM130.163 12.4695H132.634V19.6001H123.332C122.272 19.6001 121.741 19.0698 121.741 18.0093V12.4695H124.194V14.0793H130.164V12.4695H130.163ZM130.163 16.0443H124.192V17.6351H130.163V16.0443Z" fill="#292933"/>
<path d="M139.156 12.1486L137.828 10.2574C139.313 9.73394 140.468 9.23111 141.291 8.75058C142.115 8.27006 142.688 7.78095 143.013 7.28155C143.337 6.78215 143.5 6.22096 143.5 5.59628V5.29595H138.408V3.18164H146.045V5.31483C146.045 6.42519 145.832 7.36392 145.408 8.13105C144.985 8.89817 144.283 9.59493 143.303 10.2179C142.323 10.8426 140.941 11.4844 139.156 12.1451V12.1486ZM140.991 12.6926H151.921V19.6001H142.582C141.521 19.6001 140.991 19.0698 140.991 18.0093V12.6943V12.6926ZM143.462 17.5957H149.452V14.6936H143.462V17.5957ZM151.923 2.30469V11.8688H149.414V8.33184H146.587V6.23641H149.414V2.3064H151.923V2.30469Z" fill="#292933"/>
<path d="M160.394 9.26714C160.643 9.26714 160.849 9.37355 161.012 9.58463L163.988 13.4786L162.042 15.1261L159.009 10.9335C158.971 10.8597 158.915 10.822 158.841 10.822C158.779 10.822 158.716 10.8597 158.654 10.9335C158.318 11.5822 157.895 12.2567 157.391 12.9552C156.885 13.6536 156.227 14.4774 155.416 15.4264L153.488 13.7978C154.885 12.2636 155.887 10.8752 156.492 9.63269C157.097 8.3919 157.399 7.02241 157.399 5.5242V3.40989H159.944V5.50532C159.944 7.06531 159.689 8.50002 159.177 9.81117L159.291 9.8678L159.74 9.51255C159.939 9.35124 160.157 9.26886 160.396 9.26886L160.394 9.26714ZM169.866 10.4273H167.375V19.5984H164.866V2.30469H167.375V8.33184H169.866V10.429V10.4273Z" fill="#292933"/>
<path d="M169.949 13.6657C171.547 12.8676 172.762 12.1314 173.599 11.457C174.435 10.7825 175.026 10.0617 175.369 9.2946C175.712 8.52748 175.884 7.57673 175.884 6.44063V5.73014H170.531V3.61583H178.43V6.44235C178.43 7.87706 178.209 9.10068 177.766 10.1115C177.324 11.1223 176.603 12.049 175.604 12.8917C174.605 13.7343 173.208 14.6353 171.411 15.5963L169.951 13.6691L169.949 13.6657ZM181.329 2.30469H183.855V19.6001H181.329V2.30469Z" fill="#292933"/>
</svg>
