<svg width="121" height="27" viewBox="0 0 121 27" fill="none" xmlns="http://www.w3.org/2000/svg">
<rect x="0.5" width="27" height="27" rx="4" fill="#292933"/>
<path fill-rule="evenodd" clip-rule="evenodd" d="M11.103 5.19141H7.28125V21.8068H11.103V5.19141ZM18.8929 5.19141H15.0711L11.5759 12.4669C11.3587 12.9207 11.688 13.4451 12.1917 13.4451H14.9239V13.4462L18.8564 21.6294C18.8771 21.6723 18.9214 21.7 18.9698 21.7H22.7127L19.2203 14.4301C18.9311 13.8281 18.3222 13.4449 17.6539 13.4449H14.9287L18.8929 5.19141Z" fill="white"/>
<path d="M69.755 7.50454V6.12805H58.9092V3.68359H72.8403V9.83034H62.0419V11.2068H73.3387V13.6513H58.933V7.50454H69.755ZM56.1562 17.5672V14.9566H75.7594V17.5672H56.1562ZM58.8618 22.8121V18.7301H62.0419V22.2188H73.3149V24.8293H60.879C59.5342 24.8293 58.8618 24.1569 58.8618 22.8121Z" fill="#292933"/>
<path d="M55.1583 17.5709H52.0018L52.0179 24.0472H48.8377V2.97266H52.0179L52.0018 14.9558H55.1583V17.5709ZM42.8334 4.39661H45.9186V18.5887H35.5V4.39661H38.5852V9.0482H42.8334V4.39661ZM42.8334 11.6825H38.5852V15.9544H42.8334V11.6825Z" fill="#292933"/>
<path d="M120.447 10.7574V13.368H100.844V10.7574H113.92C114.284 9.30179 114.49 7.76708 114.537 6.15326H103.526V3.56641H117.67V5.03783C117.67 6.93644 117.457 8.84296 117.029 10.7574H120.447ZM106.896 22.4101H118.192V24.902H105.756C104.412 24.902 103.739 24.2296 103.739 22.8847V18.7078H114.466V17.2601H103.644V14.8394H117.646V20.9624H106.896V22.4101Z" fill="#292933"/>
<path d="M100.05 10.7595V13.3666H96.9171V19.1354H93.7369V2.90234H96.9171V10.7595H100.05ZM89.3701 6.08251H83.0098V3.42446H89.3701V6.08251ZM86.0713 16.9758C85.0112 16.9758 84.0856 16.8017 83.2946 16.4537C82.5193 16.1056 81.926 15.6388 81.5146 15.0534C81.1191 14.468 80.9213 13.8352 80.9213 13.1548C80.9213 11.81 81.5146 10.8528 82.7012 10.2832V10.0933H79.7109V7.48274H92.4316V10.0933H89.4413V10.2832C90.6438 10.8528 91.245 11.81 91.245 13.1548C91.245 13.8352 91.0393 14.468 90.6279 15.0534C90.2166 15.6388 89.6153 16.1056 88.8243 16.4537C88.049 16.8017 87.1313 16.9758 86.0713 16.9758ZM85.9051 14.3177H86.2374C86.8545 14.3177 87.3528 14.1437 87.7326 13.7956C88.1123 13.4317 88.3021 12.965 88.3021 12.3954C88.3021 11.8258 88.1123 11.367 87.7326 11.0189C87.3528 10.655 86.8545 10.473 86.2374 10.473H85.9051C85.3039 10.473 84.8134 10.6471 84.4337 10.9952C84.054 11.3432 83.8641 11.81 83.8641 12.3954C83.8641 12.9808 84.054 13.4475 84.4337 13.7956C84.8134 14.1437 85.3039 14.3177 85.9051 14.3177ZM86.4985 22.0308H97.4155V24.6414H85.3118C83.967 24.6414 83.2946 23.969 83.2946 22.6241V18.3523H86.4985V22.0308Z" fill="#292933"/>
</svg>
