<svg width="187" height="23" viewBox="0 0 187 23" fill="none" xmlns="http://www.w3.org/2000/svg">
<g clip-path="url(#clip0_2086_15000)">
<path d="M15.4035 0.751953H10.3432L5.71531 10.3852C5.42767 10.9861 5.86372 11.6805 6.5306 11.6805H10.1545L15.4035 0.751953Z" fill="#292933"/>
<path d="M5.09154 0.751953H0.03125V22.752H5.09154V0.751953Z" fill="#292933"/>
<path d="M10.1517 11.6816H13.7665C14.6514 11.6816 15.4575 12.1891 15.8404 12.9861L20.4647 22.612H15.5088C15.4447 22.612 15.3861 22.5754 15.3586 22.5186L10.1517 11.6835V11.6816Z" fill="#292933"/>
<path d="M30.5131 7.32786H28.2725L29.4487 4.18945H32.1071L31.0481 6.92663C30.9785 7.1648 30.7605 7.32786 30.5131 7.32786Z" fill="#292933"/>
<path d="M25.9021 7.32964H28.2729L27.7122 5.75586H25.0538L25.6328 7.09513C25.7024 7.2417 25.7207 7.32964 25.9003 7.32964H25.9021Z" fill="#292933"/>
<path d="M29.4839 16.0358C28.5917 16.0358 27.8149 15.8892 27.1553 15.5961C26.4958 15.3029 25.9956 14.9108 25.6566 14.418C25.3159 13.9252 25.1473 13.392 25.1473 12.8186C25.1473 11.6863 25.6475 10.8802 26.646 10.4002V10.2408H24.1287V8.04226H34.8392V10.2408H32.3219V10.4002C33.335 10.8802 33.8407 11.6863 33.8407 12.8186C33.8407 13.392 33.6666 13.9252 33.3222 14.418C32.9759 14.9108 32.4721 15.3048 31.8125 15.5961C31.153 15.8874 30.3762 16.0358 29.4839 16.0358ZM29.843 20.2918H39.0347V22.4903H28.8445C27.7123 22.4903 27.1462 21.9242 27.1462 20.7919V17.1955H29.843V20.2936V20.2918ZM29.3429 13.7969H29.6232C30.1435 13.7969 30.563 13.6467 30.8818 13.3481C31.2006 13.0476 31.3618 12.6592 31.3618 12.1792C31.3618 11.6992 31.2024 11.3108 30.8818 11.0103C30.5612 10.7098 30.1417 10.5614 29.6232 10.5614H29.3429C28.8372 10.5614 28.4231 10.708 28.1043 11.0011C27.7837 11.2943 27.6243 11.6882 27.6243 12.1792C27.6243 12.6702 27.7837 13.0659 28.1043 13.3572C28.4231 13.6504 28.8372 13.7969 29.3429 13.7969ZM41.2534 9.82124V12.0601H38.6152V17.8551H35.9385V4.1875H38.6152V9.82308H41.2534V9.82124Z" fill="#292933"/>
<path d="M52.5079 13.3192V15.8566H57.024V22.7106H54.3271V18.0552H44.9559V15.8566H49.8311V13.3192H42.9167V11.1206H54.0065C54.3271 9.76121 54.5122 8.3633 54.5653 6.9251H45.1538V4.72656H57.2036V5.98522C57.2036 7.66344 57.0167 9.37646 56.6448 11.1206H59.4222V13.3192H52.5079Z" fill="#292933"/>
<path d="M76.1938 4.1875V22.7138H73.5171V12.2396H70.8202C70.7011 13.971 70.2046 15.2846 69.3325 16.1768C68.4604 17.0691 67.3373 17.5161 65.9651 17.5161C64.4866 17.5161 63.3049 16.9995 62.4181 15.968C61.5314 14.9365 61.0898 13.414 61.0898 11.4024C61.0898 9.3907 61.5332 7.86821 62.4181 6.83673C63.303 5.80525 64.4866 5.2886 65.9651 5.2886C67.2567 5.2886 68.3304 5.68434 69.1823 6.47764C70.0342 7.27094 70.5619 8.44533 70.7616 10.0045H73.5189V4.18933H76.1956L76.1938 4.1875ZM68.0207 10.1419C68.0207 9.30276 67.8375 8.65969 67.4711 8.21265C67.1047 7.76745 66.6027 7.54393 65.9614 7.54393C65.3202 7.54393 64.8383 7.76745 64.4738 8.21265C64.1073 8.65969 63.9241 9.30092 63.9241 10.1419V12.6592C63.9241 13.4983 64.1073 14.1414 64.4738 14.5866C64.8402 15.0336 65.3367 15.2553 65.9614 15.2553C66.5862 15.2553 67.1028 15.0318 67.4711 14.5866C67.8375 14.1414 68.0207 13.4983 68.0207 12.6592V10.1419Z" fill="#292933"/>
<path d="M90.3943 13.3024H81.743V4.88932H90.3943V13.3024ZM91.9937 18.6173C92.1678 18.6173 92.3803 18.6705 92.6331 18.7767L96.869 20.6949L95.5297 22.7139L90.7149 20.2754C90.528 20.182 90.3356 20.1362 90.1359 20.1362C89.9491 20.1362 89.7494 20.1893 89.5368 20.2955L89.3371 20.4146C88.2855 21.1731 86.6531 21.9536 84.4417 22.7524L83.1428 20.7151C84.9676 20.1801 86.316 19.6158 87.1899 19.0277C88.062 18.4378 88.5713 17.7892 88.7179 17.0784H84.0625V14.8798H95.9309V17.0784H91.3946C91.3415 17.9285 91.0282 18.6943 90.4547 19.3758L90.594 19.4161L91.1729 18.9764C91.4661 18.7364 91.739 18.6173 91.9919 18.6173H91.9937ZM87.756 7.02739H84.3795V11.1643H87.756V7.02739ZM98.3676 7.84635V10.0852H95.7294V13.9216H93.0527V4.18945H95.7294V7.84635H98.3676Z" fill="#292933"/>
<path d="M108.595 15.7959V16.8549H113.21V22.7103H103.02C101.887 22.7103 101.321 22.1442 101.321 21.0119V16.8549H105.956V15.7959H99.0219V13.7183H115.527V15.7959H108.595ZM105.757 9.18198H100.821V7.14467H113.728V9.18198H108.512C108.366 9.68764 108.072 10.1548 107.633 10.5799L107.812 10.6202L108.553 10.1402C108.873 9.94047 109.205 9.83971 109.551 9.83971C109.738 9.83971 109.95 9.87268 110.19 9.94047L114.487 11.4391L113.147 13.2969L108.032 11.2981C107.845 11.2175 107.625 11.179 107.373 11.179C107.107 11.179 106.872 11.2248 106.673 11.3182L106.473 11.4172C105.328 12.0566 103.609 12.6905 101.317 13.3152L100.039 11.5161C101.623 11.1295 102.878 10.7466 103.805 10.3674C104.731 9.98811 105.381 9.59054 105.753 9.17831L105.757 9.18198ZM110.592 18.8134H103.937V20.7518H110.592V18.8134ZM110.273 6.42465H104.278V4.36719H110.273V6.42465Z" fill="#292933"/>
<path d="M131.798 4.18933V14.1395H129.12V10.3031H125.903V13.5606H117.191V4.92767H119.769V7.2856H123.325V4.92767H125.903V8.10456H129.12V4.1875H131.798V4.18933ZM123.327 9.44383H119.771V11.4024H123.327V9.44383ZM129.162 15.0391H131.8V22.6515H121.87C120.738 22.6515 120.172 22.0854 120.172 20.9532V15.0391H122.79V16.7576H129.164V15.0391H129.162ZM129.162 18.8554H122.788V20.5538H129.162V18.8554Z" fill="#292933"/>
<path d="M138.765 14.6965L137.347 12.6775C138.932 12.1187 140.165 11.5819 141.044 11.0689C141.924 10.5559 142.536 10.0338 142.882 9.50062C143.228 8.96748 143.402 8.36838 143.402 7.70149V7.38087H137.967V5.12371H146.119V7.40102C146.119 8.5864 145.892 9.58857 145.44 10.4075C144.987 11.2265 144.238 11.9703 143.192 12.6354C142.146 13.3023 140.671 13.9875 138.765 14.6928V14.6965ZM140.724 15.2773H152.393V22.6515H142.422C141.29 22.6515 140.724 22.0854 140.724 20.9532V15.2791V15.2773ZM143.362 20.5116H149.756V17.4135H143.362V20.5116ZM152.394 4.1875V14.3979H149.716V10.6219H146.698V8.38487H149.716V4.18933H152.394V4.1875Z" fill="#292933"/>
<path d="M161.433 11.6204C161.699 11.6204 161.919 11.734 162.093 11.9593L165.27 16.1164L163.192 17.8752L159.955 13.3994C159.914 13.3206 159.854 13.2803 159.775 13.2803C159.709 13.2803 159.641 13.3206 159.575 13.3994C159.216 14.0919 158.766 14.8119 158.227 15.5576C157.687 16.3033 156.985 17.1827 156.118 18.1958L154.061 16.4572C155.552 14.8192 156.622 13.3371 157.267 12.0106C157.914 10.686 158.236 9.22398 158.236 7.62454V5.36738H160.953V7.60439C160.953 9.26978 160.68 10.8014 160.134 12.2012L160.255 12.2616L160.735 11.8824C160.948 11.7102 161.18 11.6222 161.435 11.6222L161.433 11.6204ZM171.545 12.8589H168.886V22.6497H166.208V4.1875H168.886V10.6219H171.545V12.8607V12.8589Z" fill="#292933"/>
<path d="M171.638 16.3161C173.343 15.4641 174.641 14.6782 175.535 13.9582C176.427 13.2381 177.057 12.4686 177.424 11.6497C177.79 10.8307 177.973 9.81575 177.973 8.60289V7.8444H172.259V5.58723H180.692V8.60472C180.692 10.1364 180.456 11.4427 179.983 12.5218C179.51 13.6009 178.741 14.5902 177.675 15.4898C176.608 16.3894 175.117 17.3512 173.199 18.3772L171.64 16.3197L171.638 16.3161ZM183.786 4.1875H186.483V22.6515H183.786V4.1875Z" fill="#292933"/>
</g>
<defs>
<clipPath id="clip0_2086_15000">
<rect width="186.452" height="22" fill="white" transform="translate(0.0307617 0.751953)"/>
</clipPath>
</defs>
</svg>
