<svg width="22" height="23" viewBox="0 0 22 23" fill="none" xmlns="http://www.w3.org/2000/svg">
<circle cx="11" cy="11.5" r="11" fill="currentColor"/>
<path d="M5.71094 14.7711V17.0625H8.00229L14.7603 10.3045L12.4689 8.01317L5.71094 14.7711ZM16.5322 8.53255C16.5889 8.47602 16.6338 8.40887 16.6645 8.33496C16.6952 8.26104 16.7109 8.1818 16.7109 8.10177C16.7109 8.02175 16.6952 7.94251 16.6645 7.86859C16.6338 7.79467 16.5889 7.72753 16.5322 7.671L15.1024 6.24119C15.0459 6.18455 14.9788 6.13961 14.9049 6.10895C14.8309 6.07828 14.7517 6.0625 14.6717 6.0625C14.5916 6.0625 14.5124 6.07828 14.4385 6.10895C14.3646 6.13961 14.2974 6.18455 14.2409 6.24119L13.1227 7.35937L15.4141 9.65073L16.5322 8.53255Z" fill="white"/>
</svg>
