<svg width="29" height="29" viewBox="0 0 29 29" fill="none" xmlns="http://www.w3.org/2000/svg">
<path fill-rule="evenodd" clip-rule="evenodd" d="M4.35547 7.88932C4.35547 7.24499 4.8778 6.72266 5.52214 6.72266L23.9995 6.72265C24.6438 6.72265 25.1661 7.24499 25.1661 7.88932C25.1661 8.53365 24.6438 9.05599 23.9995 9.05599L5.52214 9.05599C4.8778 9.05599 4.35547 8.53366 4.35547 7.88932Z" fill="#292933"/>
<path fill-rule="evenodd" clip-rule="evenodd" d="M4.35547 14.4997C4.35547 13.8553 4.8778 13.333 5.52214 13.333L23.9995 13.333C24.6438 13.333 25.1661 13.8553 25.1661 14.4997C25.1661 15.144 24.6438 15.6663 23.9995 15.6663L5.52214 15.6663C4.8778 15.6663 4.35547 15.144 4.35547 14.4997Z" fill="#292933"/>
<path fill-rule="evenodd" clip-rule="evenodd" d="M4.35547 21.11C4.35547 20.4657 4.8778 19.9434 5.52214 19.9434L23.9995 19.9434C24.6438 19.9434 25.1661 20.4657 25.1661 21.11C25.1661 21.7544 24.6438 22.2767 23.9995 22.2767L5.52214 22.2767C4.8778 22.2767 4.35547 21.7544 4.35547 21.11Z" fill="#292933"/>
</svg>
