<svg width="20" height="20" viewBox="0 0 20 20" fill="none" xmlns="http://www.w3.org/2000/svg">
<path fill-rule="evenodd" clip-rule="evenodd" d="M10.0001 3.69961C6.51505 3.69961 3.68984 6.52482 3.68984 10.0099C3.68984 13.495 6.51505 16.3202 10.0001 16.3202C13.4852 16.3202 16.3104 13.495 16.3104 10.0099C16.3104 6.52482 13.4852 3.69961 10.0001 3.69961ZM2.08984 10.0099C2.08984 5.64116 5.6314 2.09961 10.0001 2.09961C14.3688 2.09961 17.9104 5.64116 17.9104 10.0099C17.9104 14.3786 14.3688 17.9202 10.0001 17.9202C5.6314 17.9202 2.08984 14.3786 2.08984 10.0099Z" fill="#F3F4F9"/>
<rect x="9.19922" y="12.7881" width="1.6" height="1.6" rx="0.8" fill="#F3F4F9"/>
<path fill-rule="evenodd" clip-rule="evenodd" d="M10.7839 7.37798C10.3836 6.94765 9.7079 6.93 9.28568 7.33884L8.75104 7.85655C8.43363 8.1639 7.92716 8.15574 7.61981 7.83834C7.31246 7.52093 7.32062 7.01446 7.63803 6.70711L8.17267 6.18941C9.23872 5.15713 10.9447 5.2017 11.9554 6.28823C12.8704 7.27195 12.8522 8.80074 11.914 9.76241L11.1847 10.5099C10.9654 10.7347 10.8263 11.0255 10.7889 11.3373C10.7362 11.776 10.3379 12.089 9.89927 12.0363C9.46058 11.9837 9.14764 11.5854 9.20028 11.1467C9.27961 10.4857 9.57455 9.86918 10.0395 9.39262L10.7688 8.64509C11.111 8.29435 11.1176 7.73677 10.7839 7.37798Z" fill="#F3F4F9"/>
</svg>
