<svg width="current" height="current" viewBox="0 0 16 17" fill="none" xmlns="http://www.w3.org/2000/svg">
<path d="M2 8C2 11.3137 4.68629 14 8 14C11.3137 14 14 11.3137 14 8C14 4.68629 11.3137 2 8 2C5.98839 2 4.20799 2.98995 3.1194 4.50926" stroke="currentColor" stroke-linecap="round"/>
<path fill-rule="evenodd" clip-rule="evenodd" d="M4.48572 4.19489C5.42106 3.3631 6.65242 2.85872 8.00158 2.85872C10.925 2.85872 13.2948 5.22859 13.2948 8.15197C13.2948 11.0754 10.925 13.4452 8.00158 13.4452C5.0782 13.4452 2.70833 11.0754 2.70833 8.15197C2.70833 7.78378 2.40986 7.48531 2.04167 7.48531C1.67348 7.48531 1.375 7.78378 1.375 8.15197C1.375 11.8117 4.34182 14.7786 8.00158 14.7786C11.6613 14.7786 14.6282 11.8117 14.6282 8.15197C14.6282 4.49221 11.6613 1.52539 8.00158 1.52539C6.3506 1.52539 4.84072 2.12952 3.68101 3.12756V3.0547C3.68101 2.68651 3.38253 2.38803 3.01434 2.38803C2.64615 2.38803 2.34768 2.68651 2.34768 3.0547V4.86156C2.34768 5.22975 2.64615 5.52822 3.01434 5.52822H4.8212C5.18939 5.52822 5.48787 5.22975 5.48787 4.86156C5.48787 4.49337 5.18939 4.19489 4.8212 4.19489H4.48572Z" fill="currentColor"/>
<path fill-rule="evenodd" clip-rule="evenodd" d="M8.0026 5.6543C8.37079 5.6543 8.66927 5.95277 8.66927 6.32096V8.03509L9.69453 9.06035C9.95488 9.3207 9.95488 9.74281 9.69453 10.0032C9.43418 10.2635 9.01207 10.2635 8.75172 10.0032L7.5312 8.78263C7.40618 8.65761 7.33594 8.48804 7.33594 8.31123V6.32096C7.33594 5.95277 7.63441 5.6543 8.0026 5.6543Z" fill="currentColor"/>
<path d="M2.98047 2.86719V4.6862H4.79948" stroke="currentColor" stroke-linecap="round" stroke-linejoin="round"/>
<path d="M8 6.15625V8.1599L9.22873 9.38863" stroke="currentColor" stroke-width="1.2" stroke-linecap="round" stroke-linejoin="round"/>
</svg>
