<svg width="20" height="20" viewBox="0 0 20 20" fill="none" xmlns="http://www.w3.org/2000/svg">
<path d="M2.80078 10.199C2.80078 14.1755 6.02433 17.399 10.0008 17.399C13.9772 17.399 17.2008 14.1755 17.2008 10.199C17.2008 6.22257 13.9772 2.99902 10.0008 2.99902C7.58684 2.99902 5.45037 4.18697 4.14406 6.01013" stroke="#F3F4F9" stroke-width="1.2" stroke-linecap="round"/>
<path fill-rule="evenodd" clip-rule="evenodd" d="M5.7841 5.63366C6.90646 4.63576 8.3839 4.03066 10.0027 4.03066C13.5107 4.03066 16.3546 6.87451 16.3546 10.3826C16.3546 13.8906 13.5107 16.7345 10.0027 16.7345C6.49462 16.7345 3.65078 13.8906 3.65078 10.3826C3.65078 9.94074 3.29261 9.58257 2.85078 9.58257C2.40895 9.58257 2.05078 9.94074 2.05078 10.3826C2.05078 14.7743 5.61097 18.3345 10.0027 18.3345C14.3944 18.3345 17.9546 14.7743 17.9546 10.3826C17.9546 5.99085 14.3944 2.43066 10.0027 2.43066C8.02149 2.43066 6.20963 3.15563 4.81797 4.35329V4.26543C4.81797 3.8236 4.4598 3.46543 4.01797 3.46543C3.57614 3.46543 3.21797 3.8236 3.21797 4.26543V6.43366C3.21797 6.87549 3.57614 7.23366 4.01797 7.23366H6.1862C6.62803 7.23366 6.9862 6.87549 6.9862 6.43366C6.9862 5.99183 6.62803 5.63366 6.1862 5.63366H5.7841Z" fill="#F3F4F9"/>
<path fill-rule="evenodd" clip-rule="evenodd" d="M10.0031 7.38672C10.445 7.38672 10.8031 7.74489 10.8031 8.18672V10.2437L12.0334 11.474C12.3459 11.7864 12.3459 12.2929 12.0334 12.6054C11.721 12.9178 11.2145 12.9178 10.9021 12.6054L9.43744 11.1407C9.28741 10.9907 9.20312 10.7872 9.20312 10.575V8.18672C9.20312 7.74489 9.5613 7.38672 10.0031 7.38672Z" fill="#F3F4F9"/>
<path d="M3.98047 4.04102V6.22383H6.16328" stroke="#F3F4F9" stroke-width="1.2" stroke-linecap="round" stroke-linejoin="round"/>
<path d="M10.0039 7.98828V10.3927L11.4784 11.8671" stroke="#F3F4F9" stroke-width="1.44" stroke-linecap="round" stroke-linejoin="round"/>
</svg>
