<svg width="20" height="21" viewBox="0 0 20 21" fill="none" xmlns="http://www.w3.org/2000/svg">
<path fill-rule="evenodd" clip-rule="evenodd" d="M9.99622 4.16641C6.51115 4.16641 3.68594 6.99161 3.68594 10.4767C3.68594 13.9618 6.51115 16.787 9.99622 16.787C13.4813 16.787 16.3065 13.9618 16.3065 10.4767C16.3065 6.99161 13.4813 4.16641 9.99622 4.16641ZM2.08594 10.4767C2.08594 6.10796 5.62749 2.56641 9.99622 2.56641C14.3649 2.56641 17.9065 6.10796 17.9065 10.4767C17.9065 14.8454 14.3649 18.387 9.99622 18.387C5.62749 18.387 2.08594 14.8454 2.08594 10.4767Z" fill="#F3F4F9"/>
<rect x="9.19922" y="6.52637" width="1.6" height="5.53022" rx="0.8" fill="#F3F4F9"/>
<rect x="9.19922" y="13.1699" width="1.6" height="1.6" rx="0.8" fill="#F3F4F9"/>
</svg>
