<svg width="100%" height="100%" viewBox="0 0 22 22" fill="none" xmlns="http://www.w3.org/2000/svg">
<rect width="22" height="22" rx="11" fill="#E9EAF2"/>
<path d="M6.5 13.6253V15.5H8.37475L13.904 9.97075L12.0292 8.09601L6.5 13.6253ZM15.3538 8.52095C15.4001 8.4747 15.4369 8.41976 15.462 8.35928C15.4871 8.2988 15.5 8.23397 15.5 8.1685C15.5 8.10302 15.4871 8.03819 15.462 7.97771C15.4369 7.91723 15.4001 7.86229 15.3538 7.81604L14.184 6.6462C14.1377 6.59986 14.0828 6.56309 14.0223 6.538C13.9618 6.51291 13.897 6.5 13.8315 6.5C13.766 6.5 13.7012 6.51291 13.6407 6.538C13.5802 6.56309 13.5253 6.59986 13.4791 6.6462L12.5642 7.56108L14.4389 9.43582L15.3538 8.52095Z" fill="#646468"/>
</svg>
