<svg width="current" height="current" viewBox="0 0 16 16" fill="none" xmlns="http://www.w3.org/2000/svg">
<path fill-rule="evenodd" clip-rule="evenodd" d="M7.99815 2.74935C5.09392 2.74935 2.73958 5.10369 2.73958 8.00791C2.73958 10.9121 5.09392 13.2665 7.99815 13.2665C10.9024 13.2665 13.2567 10.9121 13.2567 8.00791C13.2567 5.10369 10.9024 2.74935 7.99815 2.74935ZM1.40625 8.00791C1.40625 4.36731 4.35754 1.41602 7.99815 1.41602C11.6388 1.41602 14.59 4.36731 14.59 8.00791C14.59 11.6485 11.6388 14.5998 7.99815 14.5998C4.35754 14.5998 1.40625 11.6485 1.40625 8.00791Z" fill="currentColor"/>
<rect x="7.33203" y="10.3223" width="1.33333" height="1.33333" rx="0.666667" fill="currentColor"/>
<path fill-rule="evenodd" clip-rule="evenodd" d="M8.65257 5.81531C8.31899 5.4567 7.75594 5.44199 7.40409 5.78269L6.95855 6.21411C6.69404 6.47024 6.27199 6.46345 6.01586 6.19894C5.75974 5.93443 5.76653 5.51238 6.03104 5.25625L6.47657 4.82483C7.36495 3.9646 8.78658 4.00175 9.62883 4.90718C10.3914 5.72695 10.3762 7.00094 9.59438 7.80233L8.98663 8.42527C8.80387 8.6126 8.68793 8.85493 8.65675 9.11478C8.61288 9.48035 8.28097 9.74114 7.9154 9.69727C7.54984 9.6534 7.28905 9.32149 7.33292 8.95592C7.39902 8.40505 7.64481 7.89131 8.03226 7.49417L8.64 6.87123C8.92516 6.57895 8.93069 6.1143 8.65257 5.81531Z" fill="currentColor"/>
</svg>
