<svg width="current" height="current" viewBox="0 0 16 17" fill="none" xmlns="http://www.w3.org/2000/svg">
<path fill-rule="evenodd" clip-rule="evenodd" d="M7.99815 3.47201C5.09392 3.47201 2.73958 5.82634 2.73958 8.73057C2.73958 11.6348 5.09392 13.9891 7.99815 13.9891C10.9024 13.9891 13.2567 11.6348 13.2567 8.73057C13.2567 5.82634 10.9024 3.47201 7.99815 3.47201ZM1.40625 8.73057C1.40625 5.08996 4.35754 2.13867 7.99815 2.13867C11.6388 2.13867 14.59 5.08996 14.59 8.73057C14.59 12.3712 11.6388 15.3225 7.99815 15.3225C4.35754 15.3225 1.40625 12.3712 1.40625 8.73057Z" fill="currentColor"/>
<rect x="7.33203" y="5.43945" width="1.33333" height="4.60851" rx="0.666667" fill="currentColor"/>
<rect x="7.33203" y="10.9746" width="1.33333" height="1.33333" rx="0.666667" fill="currentColor"/>
</svg>
